<mxfile host="app.diagrams.net" modified="2024-03-06T01:08:19.366Z" agent="Mozilla/5.0 (Windows NT 10.0; Win64; x64) AppleWebKit/537.36 (KHTML, like Gecko) Chrome/121.0.0.0 Safari/537.36 OPR/107.0.0.0 (Edition std-1)" etag="Q2ALw4-2gyxdnMsc150o" version="24.0.2" type="device">
  <diagram id="C5RBs43oDa-KdzZeNtuy" name="Page-1">
    <mxGraphModel dx="2568" dy="996" grid="1" gridSize="10" guides="1" tooltips="1" connect="1" arrows="1" fold="1" page="1" pageScale="1" pageWidth="827" pageHeight="1169" math="0" shadow="0">
      <root>
        <mxCell id="WIyWlLk6GJQsqaUBKTNV-0" />
        <mxCell id="WIyWlLk6GJQsqaUBKTNV-1" parent="WIyWlLk6GJQsqaUBKTNV-0" />
        <mxCell id="PAqFh5pwpr7zqLly7z0a-31" style="edgeStyle=orthogonalEdgeStyle;rounded=0;orthogonalLoop=1;jettySize=auto;html=1;" edge="1" parent="WIyWlLk6GJQsqaUBKTNV-1" source="WIyWlLk6GJQsqaUBKTNV-3" target="PAqFh5pwpr7zqLly7z0a-9">
          <mxGeometry relative="1" as="geometry" />
        </mxCell>
        <mxCell id="WIyWlLk6GJQsqaUBKTNV-3" value="Inicia o jogo" style="rounded=1;whiteSpace=wrap;html=1;fontSize=12;glass=0;strokeWidth=1;shadow=0;" parent="WIyWlLk6GJQsqaUBKTNV-1" vertex="1">
          <mxGeometry x="160" y="80" width="120" height="40" as="geometry" />
        </mxCell>
        <mxCell id="PAqFh5pwpr7zqLly7z0a-12" value="" style="edgeStyle=orthogonalEdgeStyle;rounded=0;orthogonalLoop=1;jettySize=auto;html=1;" edge="1" parent="WIyWlLk6GJQsqaUBKTNV-1" source="PAqFh5pwpr7zqLly7z0a-9" target="PAqFh5pwpr7zqLly7z0a-11">
          <mxGeometry relative="1" as="geometry" />
        </mxCell>
        <mxCell id="PAqFh5pwpr7zqLly7z0a-9" value="Aguarda comando" style="shape=parallelogram;perimeter=parallelogramPerimeter;whiteSpace=wrap;html=1;fixedSize=1;" vertex="1" parent="WIyWlLk6GJQsqaUBKTNV-1">
          <mxGeometry x="150" y="180" width="140" height="60" as="geometry" />
        </mxCell>
        <mxCell id="PAqFh5pwpr7zqLly7z0a-16" value="" style="edgeStyle=orthogonalEdgeStyle;rounded=0;orthogonalLoop=1;jettySize=auto;html=1;" edge="1" parent="WIyWlLk6GJQsqaUBKTNV-1" source="PAqFh5pwpr7zqLly7z0a-11" target="PAqFh5pwpr7zqLly7z0a-15">
          <mxGeometry relative="1" as="geometry" />
        </mxCell>
        <mxCell id="PAqFh5pwpr7zqLly7z0a-20" value="" style="edgeStyle=orthogonalEdgeStyle;rounded=0;orthogonalLoop=1;jettySize=auto;html=1;" edge="1" parent="WIyWlLk6GJQsqaUBKTNV-1" source="PAqFh5pwpr7zqLly7z0a-11" target="PAqFh5pwpr7zqLly7z0a-19">
          <mxGeometry relative="1" as="geometry" />
        </mxCell>
        <mxCell id="PAqFh5pwpr7zqLly7z0a-29" value="" style="edgeStyle=orthogonalEdgeStyle;rounded=0;orthogonalLoop=1;jettySize=auto;html=1;" edge="1" parent="WIyWlLk6GJQsqaUBKTNV-1" source="PAqFh5pwpr7zqLly7z0a-11" target="PAqFh5pwpr7zqLly7z0a-28">
          <mxGeometry relative="1" as="geometry" />
        </mxCell>
        <mxCell id="PAqFh5pwpr7zqLly7z0a-11" value="Tipo de&amp;nbsp;&lt;div&gt;comando&lt;/div&gt;" style="rhombus;whiteSpace=wrap;html=1;" vertex="1" parent="WIyWlLk6GJQsqaUBKTNV-1">
          <mxGeometry x="180" y="290" width="80" height="88.12" as="geometry" />
        </mxCell>
        <mxCell id="PAqFh5pwpr7zqLly7z0a-15" value="Realiza o próximo movimento para o usuário" style="rounded=0;whiteSpace=wrap;html=1;" vertex="1" parent="WIyWlLk6GJQsqaUBKTNV-1">
          <mxGeometry x="-50" y="304.06" width="120" height="60" as="geometry" />
        </mxCell>
        <mxCell id="PAqFh5pwpr7zqLly7z0a-18" value="Dica" style="text;html=1;align=center;verticalAlign=middle;whiteSpace=wrap;rounded=0;" vertex="1" parent="WIyWlLk6GJQsqaUBKTNV-1">
          <mxGeometry x="80" y="300" width="60" height="30" as="geometry" />
        </mxCell>
        <mxCell id="PAqFh5pwpr7zqLly7z0a-19" value="Desativa a verificação de paredes brancas" style="rounded=0;whiteSpace=wrap;html=1;" vertex="1" parent="WIyWlLk6GJQsqaUBKTNV-1">
          <mxGeometry x="160" y="450" width="120" height="60" as="geometry" />
        </mxCell>
        <mxCell id="PAqFh5pwpr7zqLly7z0a-21" value="Phantom&amp;nbsp;&lt;div&gt;Mode&lt;/div&gt;" style="text;html=1;align=center;verticalAlign=middle;whiteSpace=wrap;rounded=0;" vertex="1" parent="WIyWlLk6GJQsqaUBKTNV-1">
          <mxGeometry x="160" y="394.06" width="60" height="30" as="geometry" />
        </mxCell>
        <mxCell id="PAqFh5pwpr7zqLly7z0a-34" value="" style="endArrow=classic;html=1;rounded=0;exitX=0.5;exitY=0;exitDx=0;exitDy=0;entryX=1;entryY=0.5;entryDx=0;entryDy=0;" edge="1" parent="WIyWlLk6GJQsqaUBKTNV-1" source="PAqFh5pwpr7zqLly7z0a-28" target="PAqFh5pwpr7zqLly7z0a-9">
          <mxGeometry width="50" height="50" relative="1" as="geometry">
            <mxPoint x="400" y="250" as="sourcePoint" />
            <mxPoint x="430" y="200" as="targetPoint" />
            <Array as="points">
              <mxPoint x="430" y="210" />
            </Array>
          </mxGeometry>
        </mxCell>
        <mxCell id="PAqFh5pwpr7zqLly7z0a-37" value="" style="group" vertex="1" connectable="0" parent="WIyWlLk6GJQsqaUBKTNV-1">
          <mxGeometry x="270" y="240" width="230" height="149.06" as="geometry" />
        </mxCell>
        <mxCell id="PAqFh5pwpr7zqLly7z0a-32" value="" style="group" vertex="1" connectable="0" parent="PAqFh5pwpr7zqLly7z0a-37">
          <mxGeometry y="39.06" width="230" height="110" as="geometry" />
        </mxCell>
        <mxCell id="PAqFh5pwpr7zqLly7z0a-28" value="Usuário pode andar nesta direção?" style="rhombus;whiteSpace=wrap;html=1;" vertex="1" parent="PAqFh5pwpr7zqLly7z0a-32">
          <mxGeometry x="90" width="140" height="110" as="geometry" />
        </mxCell>
        <mxCell id="PAqFh5pwpr7zqLly7z0a-30" value="Movimentação" style="text;html=1;align=center;verticalAlign=middle;whiteSpace=wrap;rounded=0;" vertex="1" parent="PAqFh5pwpr7zqLly7z0a-32">
          <mxGeometry y="24.060000000000002" width="60" height="30" as="geometry" />
        </mxCell>
        <mxCell id="PAqFh5pwpr7zqLly7z0a-36" value="&lt;span style=&quot;color: rgb(0, 0, 0); font-family: Helvetica; font-size: 12px; font-style: normal; font-variant-ligatures: normal; font-variant-caps: normal; font-weight: 400; letter-spacing: normal; orphans: 2; text-align: center; text-indent: 0px; text-transform: none; widows: 2; word-spacing: 0px; -webkit-text-stroke-width: 0px; white-space: normal; background-color: rgb(251, 251, 251); text-decoration-thickness: initial; text-decoration-style: initial; text-decoration-color: initial; display: inline !important; float: none;&quot;&gt;Não&lt;/span&gt;" style="text;whiteSpace=wrap;html=1;" vertex="1" parent="PAqFh5pwpr7zqLly7z0a-37">
          <mxGeometry x="110" width="30" height="30" as="geometry" />
        </mxCell>
        <mxCell id="PAqFh5pwpr7zqLly7z0a-44" value="" style="edgeStyle=orthogonalEdgeStyle;rounded=0;orthogonalLoop=1;jettySize=auto;html=1;" edge="1" parent="WIyWlLk6GJQsqaUBKTNV-1" source="PAqFh5pwpr7zqLly7z0a-40" target="PAqFh5pwpr7zqLly7z0a-43">
          <mxGeometry relative="1" as="geometry" />
        </mxCell>
        <mxCell id="PAqFh5pwpr7zqLly7z0a-49" value="" style="edgeStyle=orthogonalEdgeStyle;rounded=0;orthogonalLoop=1;jettySize=auto;html=1;" edge="1" parent="WIyWlLk6GJQsqaUBKTNV-1" source="PAqFh5pwpr7zqLly7z0a-40" target="PAqFh5pwpr7zqLly7z0a-48">
          <mxGeometry relative="1" as="geometry" />
        </mxCell>
        <mxCell id="PAqFh5pwpr7zqLly7z0a-40" value="Verifica tipo de quadrado" style="rhombus;whiteSpace=wrap;html=1;" vertex="1" parent="WIyWlLk6GJQsqaUBKTNV-1">
          <mxGeometry x="580" y="274.53" width="150" height="119.06" as="geometry" />
        </mxCell>
        <mxCell id="PAqFh5pwpr7zqLly7z0a-41" value="" style="edgeStyle=orthogonalEdgeStyle;rounded=0;orthogonalLoop=1;jettySize=auto;html=1;" edge="1" parent="WIyWlLk6GJQsqaUBKTNV-1" source="PAqFh5pwpr7zqLly7z0a-28" target="PAqFh5pwpr7zqLly7z0a-40">
          <mxGeometry relative="1" as="geometry" />
        </mxCell>
        <mxCell id="PAqFh5pwpr7zqLly7z0a-42" value="&lt;span style=&quot;color: rgb(0, 0, 0); font-family: Helvetica; font-size: 12px; font-style: normal; font-variant-ligatures: normal; font-variant-caps: normal; font-weight: 400; letter-spacing: normal; orphans: 2; text-align: center; text-indent: 0px; text-transform: none; widows: 2; word-spacing: 0px; -webkit-text-stroke-width: 0px; white-space: normal; background-color: rgb(251, 251, 251); text-decoration-thickness: initial; text-decoration-style: initial; text-decoration-color: initial; display: inline !important; float: none;&quot;&gt;Sim&lt;/span&gt;" style="text;whiteSpace=wrap;html=1;" vertex="1" parent="WIyWlLk6GJQsqaUBKTNV-1">
          <mxGeometry x="520" y="300" width="30" height="30" as="geometry" />
        </mxCell>
        <mxCell id="PAqFh5pwpr7zqLly7z0a-47" value="" style="edgeStyle=orthogonalEdgeStyle;rounded=0;orthogonalLoop=1;jettySize=auto;html=1;" edge="1" parent="WIyWlLk6GJQsqaUBKTNV-1" source="PAqFh5pwpr7zqLly7z0a-43" target="PAqFh5pwpr7zqLly7z0a-46">
          <mxGeometry relative="1" as="geometry" />
        </mxCell>
        <mxCell id="PAqFh5pwpr7zqLly7z0a-43" value="Mostra tela de gameOver" style="whiteSpace=wrap;html=1;" vertex="1" parent="WIyWlLk6GJQsqaUBKTNV-1">
          <mxGeometry x="595" y="503.12" width="120" height="60" as="geometry" />
        </mxCell>
        <mxCell id="PAqFh5pwpr7zqLly7z0a-45" value="&lt;span style=&quot;color: rgb(0, 0, 0); font-family: Helvetica; font-size: 12px; font-style: normal; font-variant-ligatures: normal; font-variant-caps: normal; font-weight: 400; letter-spacing: normal; orphans: 2; text-align: center; text-indent: 0px; text-transform: none; widows: 2; word-spacing: 0px; -webkit-text-stroke-width: 0px; white-space: normal; background-color: rgb(251, 251, 251); text-decoration-thickness: initial; text-decoration-style: initial; text-decoration-color: initial; display: inline !important; float: none;&quot;&gt;Player position fora do&lt;/span&gt;&lt;span style=&quot;text-align: center;&quot;&gt;&amp;nbsp;mapa&lt;/span&gt;" style="text;whiteSpace=wrap;html=1;" vertex="1" parent="WIyWlLk6GJQsqaUBKTNV-1">
          <mxGeometry x="660" y="440" width="100" height="40" as="geometry" />
        </mxCell>
        <mxCell id="PAqFh5pwpr7zqLly7z0a-46" value="Fim" style="rounded=1;whiteSpace=wrap;html=1;" vertex="1" parent="WIyWlLk6GJQsqaUBKTNV-1">
          <mxGeometry x="790" y="503.12" width="120" height="60" as="geometry" />
        </mxCell>
        <mxCell id="PAqFh5pwpr7zqLly7z0a-50" style="edgeStyle=orthogonalEdgeStyle;rounded=0;orthogonalLoop=1;jettySize=auto;html=1;" edge="1" parent="WIyWlLk6GJQsqaUBKTNV-1" source="PAqFh5pwpr7zqLly7z0a-48" target="PAqFh5pwpr7zqLly7z0a-46">
          <mxGeometry relative="1" as="geometry" />
        </mxCell>
        <mxCell id="PAqFh5pwpr7zqLly7z0a-48" value="Mostra tela de vitória" style="whiteSpace=wrap;html=1;" vertex="1" parent="WIyWlLk6GJQsqaUBKTNV-1">
          <mxGeometry x="790" y="304.05999999999995" width="120" height="60" as="geometry" />
        </mxCell>
        <mxCell id="PAqFh5pwpr7zqLly7z0a-51" value="" style="endArrow=classic;html=1;rounded=0;exitX=0.5;exitY=0;exitDx=0;exitDy=0;entryX=0;entryY=0.5;entryDx=0;entryDy=0;" edge="1" parent="WIyWlLk6GJQsqaUBKTNV-1" source="PAqFh5pwpr7zqLly7z0a-15" target="PAqFh5pwpr7zqLly7z0a-9">
          <mxGeometry width="50" height="50" relative="1" as="geometry">
            <mxPoint y="190" as="sourcePoint" />
            <mxPoint x="50" y="140" as="targetPoint" />
            <Array as="points">
              <mxPoint x="10" y="210" />
            </Array>
          </mxGeometry>
        </mxCell>
        <mxCell id="PAqFh5pwpr7zqLly7z0a-52" value="&lt;div style=&quot;text-align: center;&quot;&gt;Quadrado azul&lt;/div&gt;" style="text;whiteSpace=wrap;html=1;" vertex="1" parent="WIyWlLk6GJQsqaUBKTNV-1">
          <mxGeometry x="700" y="290" width="100" height="40" as="geometry" />
        </mxCell>
        <mxCell id="PAqFh5pwpr7zqLly7z0a-54" value="" style="endArrow=classic;html=1;rounded=0;exitX=0.5;exitY=0;exitDx=0;exitDy=0;entryX=1;entryY=0.5;entryDx=0;entryDy=0;" edge="1" parent="WIyWlLk6GJQsqaUBKTNV-1" source="PAqFh5pwpr7zqLly7z0a-40" target="PAqFh5pwpr7zqLly7z0a-9">
          <mxGeometry width="50" height="50" relative="1" as="geometry">
            <mxPoint x="630" y="200" as="sourcePoint" />
            <mxPoint x="680" y="150" as="targetPoint" />
            <Array as="points">
              <mxPoint x="655" y="210" />
            </Array>
          </mxGeometry>
        </mxCell>
        <mxCell id="PAqFh5pwpr7zqLly7z0a-55" value="" style="endArrow=classic;html=1;rounded=0;exitX=0;exitY=1;exitDx=0;exitDy=0;entryX=0.5;entryY=1;entryDx=0;entryDy=0;" edge="1" parent="WIyWlLk6GJQsqaUBKTNV-1" source="PAqFh5pwpr7zqLly7z0a-40" target="PAqFh5pwpr7zqLly7z0a-28">
          <mxGeometry width="50" height="50" relative="1" as="geometry">
            <mxPoint x="389" y="585" as="sourcePoint" />
            <mxPoint x="439" y="535" as="targetPoint" />
            <Array as="points">
              <mxPoint x="618" y="420" />
              <mxPoint x="430" y="420" />
            </Array>
          </mxGeometry>
        </mxCell>
        <mxCell id="PAqFh5pwpr7zqLly7z0a-56" value="Preto" style="text;html=1;align=center;verticalAlign=middle;whiteSpace=wrap;rounded=0;" vertex="1" parent="WIyWlLk6GJQsqaUBKTNV-1">
          <mxGeometry x="500" y="394" width="60" height="30" as="geometry" />
        </mxCell>
        <mxCell id="PAqFh5pwpr7zqLly7z0a-58" value="" style="endArrow=classic;html=1;rounded=0;exitX=0;exitY=0.5;exitDx=0;exitDy=0;entryX=0;entryY=0.5;entryDx=0;entryDy=0;" edge="1" parent="WIyWlLk6GJQsqaUBKTNV-1" source="PAqFh5pwpr7zqLly7z0a-19" target="PAqFh5pwpr7zqLly7z0a-9">
          <mxGeometry width="50" height="50" relative="1" as="geometry">
            <mxPoint x="40" y="520" as="sourcePoint" />
            <mxPoint x="-110" y="190" as="targetPoint" />
            <Array as="points">
              <mxPoint x="-110" y="480" />
              <mxPoint x="-110" y="210" />
            </Array>
          </mxGeometry>
        </mxCell>
      </root>
    </mxGraphModel>
  </diagram>
</mxfile>
